<svg width="30" height="30" viewBox="0 0 30 30" fill="none" xmlns="http://www.w3.org/2000/svg">
<rect width="30" height="30" rx="8" fill="#024E99"/>
<g clip-path="url(#clip0_215_9170)">
<path d="M14.0305 10.008C13.9326 9.36343 13.7347 8.71099 13.4463 8.07349C11.9492 8.28401 10.594 8.93643 9.51685 9.89484L13.2381 13.6162C13.9652 12.6915 14.2462 11.4286 14.0305 10.008Z" fill="white"/>
<path d="M13.242 14.8621C12.3532 15.5959 11.2098 15.9793 9.92509 15.9793C9.58472 15.9793 9.23456 15.9524 8.87649 15.8981C8.25095 15.803 7.62039 15.6248 7.00158 15.3706C7.00091 15.4132 7 15.4558 7 15.4986C7 17.4115 7.71657 19.1568 8.89539 20.4817L13.8785 15.4986L13.242 14.8621Z" fill="white"/>
<path d="M12.6167 14.2362L8.89533 10.5149C7.93691 11.5921 7.2845 12.9472 7.07397 14.4444C7.7115 14.7327 8.36397 14.9307 9.00842 15.0285C10.4291 15.2443 11.692 14.9632 12.6167 14.2362Z" fill="white"/>
<path d="M19.9915 15.9685C18.5709 15.7527 17.3079 16.0338 16.3833 16.7609L20.1046 20.4822C21.063 19.405 21.7154 18.0499 21.926 16.5527C21.2885 16.2644 20.6361 16.0664 19.9915 15.9685Z" fill="white"/>
<path d="M15.1364 16.7572L14.5 16.1208L9.51685 21.104C10.8417 22.2828 12.587 22.9994 14.5 22.9994C14.5428 22.9994 14.5854 22.9985 14.628 22.9978C14.3738 22.379 14.1955 21.7484 14.1005 21.1229C13.8409 19.4133 14.2081 17.8814 15.1364 16.7572Z" fill="white"/>
<path d="M13.8635 14.2409L14.4999 14.8773L19.483 9.89417C18.1582 8.71532 16.4129 7.99878 14.4999 7.99878C14.4571 7.99878 14.4145 7.99969 14.3719 8.00039C14.6261 8.61917 14.8044 9.24967 14.8994 9.8753C15.1589 11.5848 14.7918 13.1167 13.8635 14.2409Z" fill="white"/>
<path d="M14.9692 20.9903C15.0671 21.6347 15.2651 22.2872 15.5534 22.9248C17.0506 22.7142 18.4057 22.0618 19.4829 21.1034L15.7615 17.3821C15.0345 18.3067 14.7535 19.5696 14.9692 20.9903Z" fill="white"/>
<path d="M15.758 16.1344C16.8821 15.2062 18.4141 14.839 20.1236 15.0986C20.7492 15.1936 21.3797 15.3719 21.9985 15.6261C21.9992 15.5835 22.0001 15.5409 22.0001 15.498C22.0001 13.5851 21.2835 11.8398 20.1047 10.5149L15.1216 15.4981L15.758 16.1344Z" fill="white"/>
</g>
<defs>
<clipPath id="clip0_215_9170">
<rect width="15" height="15" fill="white" transform="translate(7 8)"/>
</clipPath>
</defs>
</svg>
