<svg width="23" height="23" viewBox="0 0 23 23" fill="none" xmlns="http://www.w3.org/2000/svg">
<path fill-rule="evenodd" clip-rule="evenodd" d="M15.8521 2.73659L15.853 3.45498C18.4929 3.66188 20.2367 5.46073 20.2396 8.21935L20.25 16.2941C20.2538 19.3017 18.3642 21.1523 15.3355 21.1571L7.93722 21.1667C4.92739 21.1705 3.0142 19.2759 3.01041 16.2596L3.00001 8.27969C2.99622 5.50287 4.67855 3.70881 7.31841 3.46648L7.31747 2.74809C7.31652 2.32663 7.62876 2.00958 8.04509 2.00958C8.46141 2.00862 8.77365 2.32471 8.7746 2.74617L8.77555 3.41667L14.3959 3.409L14.395 2.73851C14.394 2.31705 14.7063 2.00096 15.1226 2C15.5294 1.99904 15.8511 2.31514 15.8521 2.73659ZM4.4581 8.57561L18.7834 8.55645V8.2212C18.7427 6.16182 17.7095 5.08136 15.8549 4.92044L15.8559 5.65799C15.8559 6.06986 15.5351 6.39649 15.1283 6.39649C14.712 6.39745 14.3988 6.07178 14.3988 5.6599L14.3978 4.88404L8.77745 4.8917L8.7784 5.66661C8.7784 6.07944 8.4671 6.40511 8.05078 6.40511C7.63446 6.40607 7.32127 6.08136 7.32127 5.66852L7.32032 4.93098C5.47525 5.11584 4.45431 6.20013 4.45715 8.27772L4.4581 8.57561ZM14.73 12.929V12.9396C14.7394 13.3802 15.099 13.7145 15.5352 13.7049C15.961 13.6944 16.3007 13.3294 16.2912 12.8888C16.2713 12.4673 15.9298 12.1235 15.5049 12.1244C15.0697 12.134 14.729 12.4884 14.73 12.929ZM15.5114 17.2298C15.0762 17.2202 14.7252 16.8572 14.7242 16.4166C14.7147 15.976 15.0639 15.611 15.4991 15.6005H15.5086C15.9533 15.6005 16.3138 15.9635 16.3138 16.4137C16.3147 16.8639 15.9552 17.2288 15.5114 17.2298ZM10.8316 12.9445C10.8505 13.3851 11.211 13.7289 11.6463 13.7098C12.0721 13.6897 12.4117 13.3257 12.3928 12.8851C12.3824 12.454 12.0323 12.1188 11.6065 12.1198C11.1713 12.1389 10.8307 12.5039 10.8316 12.9445ZM11.6501 17.1868C11.2149 17.2059 10.8553 16.8621 10.8355 16.4215C10.8355 15.9809 11.1751 15.6169 11.6104 15.5968C12.0362 15.5958 12.3872 15.931 12.3967 16.3611C12.4166 16.8027 12.0759 17.1667 11.6501 17.1868ZM6.93335 12.9779C6.95227 13.4185 7.31277 13.7634 7.74802 13.7432C8.1738 13.7241 8.51349 13.3591 8.49362 12.9185C8.48415 12.4875 8.13406 12.1523 7.70733 12.1532C7.27209 12.1724 6.9324 12.5373 6.93335 12.9779ZM7.75176 17.1915C7.31652 17.2116 6.95696 16.8667 6.93709 16.4261C6.93615 15.9855 7.27678 15.6206 7.71202 15.6014C8.13781 15.6005 8.48884 15.9357 8.49831 16.3667C8.51818 16.8074 8.17849 17.1723 7.75176 17.1915Z" fill="#024E99"/>
</svg>
