<svg width="206" height="240" viewBox="0 0 206 240" fill="none" xmlns="http://www.w3.org/2000/svg">
<g filter="url(#filter0_d_215_9469)">
<path fill-rule="evenodd" clip-rule="evenodd" d="M86.3113 38.3968C86.3113 29.1799 93.7831 21.708 103 21.708C112.217 21.708 119.689 29.1798 119.689 38.3968V38.8615C139.134 45.7346 153.066 64.2798 153.066 86.0789V122.371H153.347C153.347 122.371 153.411 130.708 158.982 130.708C161.081 130.708 163.305 131.56 165.261 132.622C169.218 134.77 171 139.266 171 143.769C171 152.725 163.739 159.986 154.783 159.986H50.8518C42.0971 159.986 35 152.889 35 144.134C35 139.429 37.0048 134.786 41.1664 132.59C43.1504 131.543 45.3125 130.708 47.1626 130.708C50.1586 130.708 51.9695 127.666 52.9338 125.257V86.0789C52.9338 64.2797 66.8657 45.7346 86.3113 38.8615V38.3968ZM102.5 190.208C113.822 190.208 123 185.619 123 179.958C123 174.297 113.822 169.708 102.5 169.708C91.1782 169.708 82 174.297 82 179.958C82 185.619 91.1782 190.208 102.5 190.208Z" fill="#024E99"/>
</g>
<defs>
<filter id="filter0_d_215_9469" x="0" y="0.708038" width="206" height="238.5" filterUnits="userSpaceOnUse" color-interpolation-filters="sRGB">
<feFlood flood-opacity="0" result="BackgroundImageFix"/>
<feColorMatrix in="SourceAlpha" type="matrix" values="0 0 0 0 0 0 0 0 0 0 0 0 0 0 0 0 0 0 127 0" result="hardAlpha"/>
<feOffset dy="14"/>
<feGaussianBlur stdDeviation="17.5"/>
<feColorMatrix type="matrix" values="0 0 0 0 0.208044 0 0 0 0 0.283314 0 0 0 0 0.429427 0 0 0 0.057 0"/>
<feBlend mode="normal" in2="BackgroundImageFix" result="effect1_dropShadow_215_9469"/>
<feBlend mode="normal" in="SourceGraphic" in2="effect1_dropShadow_215_9469" result="shape"/>
</filter>
</defs>
</svg>
