<svg width="16" height="16" viewBox="0 0 16 16" fill="none" xmlns="http://www.w3.org/2000/svg">
<rect width="16" height="16" fill="white"/>
<path fill-rule="evenodd" clip-rule="evenodd" d="M7.70585 12.5467L3.11282 14.9133C2.7461 15.0926 2.29431 14.9657 2.09214 14.6267C2.03365 14.5216 2.0021 14.4052 2 14.2867V3.8C2 1.8 3.45304 1 5.544 1H10.456C12.4832 1 14 1.74667 14 3.66667V14.2867C14 14.4759 13.9201 14.6573 13.7779 14.7911C13.6356 14.9248 13.4427 15 13.2416 15C13.1133 14.9981 12.9872 14.9684 12.873 14.9133L8.25162 12.5467C8.08133 12.4601 7.87614 12.4601 7.70585 12.5467Z" fill="#024E99"/>
</svg>
