<svg width="26" height="27" viewBox="0 0 26 27" fill="none" xmlns="http://www.w3.org/2000/svg">
<path fill-rule="evenodd" clip-rule="evenodd" d="M17.5285 3.02134L17.5295 3.83344C20.5137 4.06732 22.485 6.1008 22.4882 9.21924L22.5 18.3472C22.5043 21.7471 20.3683 23.8391 16.9445 23.8445L8.58121 23.8553C5.17879 23.8597 3.01605 21.7179 3.01177 18.3082L3.00001 9.28746C2.99573 6.14844 4.89749 4.12038 7.88169 3.84643L7.88062 3.03434C7.87955 2.55791 8.23252 2.19951 8.70314 2.19951C9.17377 2.19842 9.52674 2.55574 9.52781 3.03217L9.52888 3.79013L15.8823 3.78146L15.8813 3.02351C15.8802 2.54708 16.2332 2.18976 16.7038 2.18868C17.1637 2.18759 17.5274 2.54492 17.5285 3.02134ZM4.64829 9.62197L20.8421 9.60032V9.22134C20.7961 6.89334 19.6281 5.67195 17.5317 5.49004L17.5328 6.32379C17.5328 6.78939 17.1702 7.15862 16.7102 7.15862C16.2396 7.15971 15.8856 6.79156 15.8856 6.32596L15.8845 5.4489L9.53103 5.45756L9.5321 6.33354C9.5321 6.80022 9.1802 7.16837 8.70958 7.16837C8.23895 7.16945 7.88491 6.80238 7.88491 6.3357L7.88384 5.50195C5.79811 5.71093 4.64401 6.93665 4.64722 9.28522L4.64829 9.62197ZM16.26 14.5432V14.5551C16.2707 15.0532 16.6771 15.4311 17.1702 15.4203C17.6515 15.4084 18.0355 14.9958 18.0248 14.4978C18.0024 14.0213 17.6162 13.6326 17.136 13.6337C16.644 13.6445 16.2589 14.0451 16.26 14.5432ZM17.1434 19.405C16.6513 19.3941 16.2545 18.9838 16.2535 18.4857C16.2428 17.9876 16.6374 17.5751 17.1295 17.5631H17.1402C17.6429 17.5631 18.0504 17.9735 18.0504 18.4824C18.0515 18.9913 17.645 19.4039 17.1434 19.405ZM11.8531 14.5607C11.8745 15.0588 12.282 15.4475 12.7741 15.4258C13.2554 15.4031 13.6394 14.9916 13.618 14.4935C13.6062 14.0063 13.2105 13.6273 12.7291 13.6284C12.2371 13.65 11.8521 14.0626 11.8531 14.5607ZM12.7784 19.3563C12.2864 19.378 11.8799 18.9893 11.8575 18.4912C11.8575 17.9931 12.2415 17.5817 12.7335 17.5589C13.2148 17.5578 13.6116 17.9368 13.6223 18.423C13.6448 18.9221 13.2597 19.3336 12.7784 19.3563ZM7.4464 14.5985C7.46779 15.0966 7.87531 15.4864 8.36733 15.4636C8.84865 15.442 9.23264 15.0294 9.21018 14.5314C9.19948 14.0441 8.80373 13.6651 8.32133 13.6662C7.82932 13.6879 7.44533 14.1004 7.4464 14.5985ZM8.37156 19.3616C7.87954 19.3844 7.47309 18.9946 7.45063 18.4965C7.44956 17.9984 7.83462 17.5858 8.32664 17.5642C8.80796 17.5631 9.20478 17.9421 9.21548 18.4293C9.23794 18.9274 8.85395 19.34 8.37156 19.3616Z" fill="#024E99"/>
</svg>
