<svg width="30" height="30" viewBox="0 0 30 30" fill="none" xmlns="http://www.w3.org/2000/svg">
<path fill-rule="evenodd" clip-rule="evenodd" d="M10.6645 4.19282C13.3956 2.66583 16.7525 2.69252 19.458 4.26273C22.1368 5.86492 23.765 8.72437 23.7498 11.8003C23.6874 14.8561 21.9416 17.7285 19.7593 19.9491C18.4998 21.2365 17.0908 22.3749 15.5611 23.341C15.4035 23.4287 15.2309 23.4873 15.0519 23.5142C14.8795 23.5071 14.7116 23.4581 14.5634 23.3716C12.228 21.9199 10.1792 20.0669 8.51542 17.9017C7.12324 16.0943 6.33229 13.9108 6.25 11.6475C6.24819 8.56568 7.93346 5.71981 10.6645 4.19282ZM12.2427 12.9229C12.7021 14.0127 13.7865 14.7236 14.9895 14.7236C15.7776 14.7291 16.5352 14.4253 17.0935 13.88C17.6518 13.3347 17.9644 12.5932 17.9616 11.8206C17.9658 10.6414 17.2443 9.57608 16.1341 9.12196C15.0238 8.66784 13.7438 8.91456 12.8916 9.74692C12.0395 10.5793 11.7833 11.8331 12.2427 12.9229Z" fill="#024E99"/>
<path opacity="0.4" d="M15 27.1226C18.4518 27.1226 21.25 26.5841 21.25 25.9198C21.25 25.2555 18.4518 24.717 15 24.717C11.5482 24.717 8.75 25.2555 8.75 25.9198C8.75 26.5841 11.5482 27.1226 15 27.1226Z" fill="#024E99"/>
</svg>
