<svg width="18" height="19" viewBox="0 0 18 19" fill="none" xmlns="http://www.w3.org/2000/svg">
<g clip-path="url(#clip0_215_5478)">
<path d="M17.4673 15.8942L10.5351 8.9619L2.43595 0.862762H1.803L1.67375 1.19117C1.33264 2.05799 1.18689 2.94456 1.25233 3.75492C1.32691 4.67864 1.67783 5.47837 2.2672 6.06775L8.58983 12.3904L9.42377 11.5564L15.269 18.0925C15.8505 18.674 16.8513 18.7085 17.4673 18.0925C18.0734 17.4864 18.0734 16.5003 17.4673 15.8942Z" fill="#B0B1BC" fill-opacity="0.5"/>
<path d="M5.65957 10.9269L0.707715 15.8788C0.10166 16.4848 0.10166 17.471 0.707715 18.0771C1.28345 18.6528 2.27944 18.7036 2.90601 18.0771L7.85789 13.1252L5.65957 10.9269Z" fill="#B0B1BC" fill-opacity="0.5"/>
<path d="M17.1762 3.80607L14.3673 6.61501L13.6344 5.88224L16.4434 3.07326L15.7106 2.34049L12.9017 5.14943L12.1689 4.41665L14.9779 1.60771L14.2452 0.874969L10.5813 4.53885C10.1331 4.98707 9.86542 5.58222 9.82758 6.21472C9.81801 6.37497 9.78169 6.53259 9.72144 6.68252L12.1015 9.06257C12.2514 9.00225 12.4091 8.96596 12.5693 8.9564C13.2018 8.91866 13.7969 8.65095 14.2452 8.20273L17.909 4.53888L17.1762 3.80607Z" fill="#B0B1BC" fill-opacity="0.5"/>
</g>
<defs>
<clipPath id="clip0_215_5478">
<rect width="17.6789" height="17.6789" fill="white" transform="translate(0.247803 0.863159)"/>
</clipPath>
</defs>
</svg>
