<svg width="23" height="23" viewBox="0 0 23 23" fill="none" xmlns="http://www.w3.org/2000/svg">
<path d="M2 11.7598C2 11.5854 2 11.4146 2 11.2402C2.11133 10.6873 2.47129 10.2977 2.85723 9.91172C5.20996 7.57012 7.55898 5.22109 9.90059 2.86836C10.2865 2.47871 10.6799 2.11133 11.2402 2C11.4146 2 11.5854 2 11.7598 2C12.3164 2.11133 12.7023 2.47129 13.0846 2.85723C15.4336 5.21738 17.79 7.57383 20.1539 9.92656C20.5473 10.3162 20.9035 10.7133 21 11.2811C21 11.4295 21 11.5779 21 11.7264C20.9889 11.7561 20.974 11.782 20.9666 11.8117C20.7959 12.6727 20.1131 13.2404 19.241 13.2516C19.152 13.2516 19.0629 13.2516 18.9627 13.2516C18.9627 13.3555 18.9627 13.4297 18.9627 13.5002C18.9627 15.3371 18.9664 17.1703 18.959 19.0072C18.9553 19.8793 18.3615 20.6475 17.534 20.9072C17.4189 20.9443 17.3002 20.9703 17.1814 21.0037C16.0422 21.0037 14.9066 21.0037 13.7674 21.0037C13.4371 20.8813 13.3221 20.64 13.3258 20.2949C13.3332 18.8811 13.3295 17.4672 13.3295 16.0496C13.3295 15.4188 12.9473 15.0365 12.3127 15.0365C11.7895 15.0365 11.2625 15.0365 10.7393 15.0365C10.0527 15.0365 9.68164 15.4039 9.68164 16.0867C9.68164 17.4895 9.67793 18.8922 9.68535 20.2949C9.68906 20.6363 9.57402 20.8813 9.24375 21.0037C8.10449 21.0037 6.96895 21.0037 5.82969 21.0037C5.81484 20.9963 5.8 20.9777 5.78145 20.9777C4.89453 20.8664 4.02246 20.0426 4.0373 18.8402C4.06328 17.0553 4.04473 15.2666 4.04473 13.4816C4.04473 13.4111 4.04473 13.3369 4.04473 13.2516C3.91484 13.2516 3.81094 13.2553 3.70703 13.2516C3.02793 13.2182 2.51953 12.899 2.20039 12.2979C2.10762 12.1272 2.06309 11.9379 2 11.7598Z" fill="#024E99"/>
</svg>
