<svg width="30" height="30" viewBox="0 0 30 30" fill="none" xmlns="http://www.w3.org/2000/svg">
<rect width="30" height="30" rx="8" fill="#024E99" fill-opacity="0.25"/>
<g clip-path="url(#clip0_215_9225)">
<path d="M17.3038 17.3177C18.7328 17.2924 19.0473 15.3266 17.6988 14.8584L16.1418 16.547C16.3361 17.0044 16.7942 17.3177 17.3038 17.3177Z" fill="white"/>
<path d="M21.9152 14.7665C21.715 13.5656 21.1524 12.6386 20.2788 12.0599C19.8719 12.5015 18.7508 13.7169 18.3276 14.176C19.0084 14.5449 19.4442 15.2594 19.4442 16.0565C19.4489 17.9039 17.2196 18.885 15.861 17.6375C15.7315 17.9241 15.5498 18.1879 15.3209 18.4168C14.4138 19.4002 11.6038 19.638 10.4044 19.603C10.3693 18.4006 10.608 15.592 11.5907 14.6865C12.0921 14.1854 12.7462 13.9284 13.4046 13.9158C14.1253 13.249 15.1246 12.3243 15.8423 11.6601C14.8454 11.9228 13.3852 12.6183 12.9399 11.9617C12.7314 11.4698 13.679 10.3268 12.9314 9.36759C12.3187 8.5983 10.9475 8.7428 10.1726 9.28934C6.3997 11.8943 5.89521 17.6175 9.18888 20.8013C13.2209 24.8644 20.2545 23.0237 21.7997 17.5177C21.8836 17.1711 22.1238 16.0351 21.9152 14.7665Z" fill="white"/>
<path d="M15.3208 14.6865C15.5658 14.9315 15.7566 15.216 15.8873 15.5258C16.3863 14.9853 19.0212 12.1266 19.4587 11.6525L21.7981 9.11524C22.0537 8.83801 22.0604 8.42774 21.8137 8.1807C21.5663 7.93365 21.1555 7.94069 20.8782 8.19711L17.4569 11.3635C16.714 12.0508 15.2363 13.4188 14.4783 14.1203C14.7848 14.2486 15.0717 14.4374 15.3208 14.6865Z" fill="white"/>
<path d="M14.2299 14.9722C13.5624 14.6473 12.7535 14.768 12.2122 15.3074C11.6531 15.8017 11.3357 17.683 11.3035 18.7033C12.3267 18.67 14.2035 18.3545 14.6991 17.7945C15.0314 17.4622 15.2142 17.0206 15.2142 16.5511C15.2142 16.081 15.0311 15.6394 14.6991 15.3077V15.3074C14.5584 15.1665 14.3996 15.0548 14.2299 14.9722Z" fill="white"/>
</g>
<defs>
<clipPath id="clip0_215_9225">
<rect width="15" height="15" fill="white" transform="translate(7 8)"/>
</clipPath>
</defs>
</svg>
