<svg width="20" height="20" viewBox="0 0 20 20" fill="none" xmlns="http://www.w3.org/2000/svg">
<path d="M4.55806 10.4419C4.31398 10.1979 4.31398 9.80213 4.55806 9.55805L6.22473 7.89138C6.4688 7.6473 6.86453 7.6473 7.10861 7.89138C7.35269 8.13546 7.35269 8.53119 7.10861 8.77527L6.50888 9.37499L12.5 9.37499C12.8452 9.37499 13.125 9.65481 13.125 9.99999C13.125 10.3452 12.8452 10.625 12.5 10.625L6.50888 10.625L7.10861 11.2247C7.35269 11.4688 7.35269 11.8645 7.10861 12.1086C6.86453 12.3527 6.4688 12.3527 6.22473 12.1086L4.55806 10.4419Z" fill="#F1573D"/>
<path fill-rule="evenodd" clip-rule="evenodd" d="M11.6211 1.04166H12.5459C13.6856 1.04164 14.6042 1.04163 15.3266 1.13876C16.0767 1.23961 16.7083 1.45535 17.2099 1.95695C17.7115 2.45855 17.9272 3.09011 18.0281 3.8402C18.1252 4.56267 18.1252 5.48127 18.1252 6.62093V13.379C18.1252 14.5187 18.1252 15.4373 18.0281 16.1598C17.9272 16.9099 17.7115 17.5414 17.2099 18.043C16.7083 18.5446 16.0767 18.7604 15.3266 18.8612C14.6042 18.9584 13.6856 18.9583 12.5459 18.9583H11.6211C10.4815 18.9583 9.56286 18.9584 8.84039 18.8612C8.0903 18.7604 7.45874 18.5446 6.95714 18.043C6.62469 17.7106 6.41723 17.3203 6.28587 16.8749C5.49307 16.8738 4.83255 16.8651 4.29741 16.7931C3.66078 16.7075 3.10883 16.5223 2.66825 16.0817C2.22768 15.6412 2.04244 15.0892 1.95685 14.4526C1.87497 13.8435 1.87498 13.0721 1.875 12.1281V7.87191C1.87498 6.9279 1.87497 6.15644 1.95685 5.54739C2.04244 4.91077 2.22768 4.35882 2.66825 3.91824C3.10883 3.47767 3.66078 3.29243 4.29741 3.20684C4.83255 3.13489 5.49307 3.12617 6.28587 3.12513C6.41723 2.67967 6.62469 2.2894 6.95714 1.95695C7.45874 1.45535 8.0903 1.23961 8.84039 1.13876C9.56286 1.04163 10.4815 1.04164 11.6211 1.04166ZM6.04331 14.1701C6.0463 14.7072 6.05516 15.191 6.0857 15.6242C5.3903 15.6215 4.87333 15.6093 4.46397 15.5543C3.96595 15.4873 3.72175 15.3675 3.55214 15.1979C3.38252 15.0282 3.26266 14.784 3.1957 14.286C3.12633 13.77 3.125 13.0831 3.125 12.0833V7.91666C3.125 6.9169 3.12633 6.22995 3.1957 5.71395C3.26266 5.21594 3.38252 4.97174 3.55214 4.80213C3.72175 4.63251 3.96595 4.51265 4.46397 4.44569C4.87333 4.39065 5.3903 4.37844 6.0857 4.37575C6.05516 4.80893 6.0463 5.29273 6.04331 5.82984C6.04138 6.17502 6.31964 6.45639 6.66482 6.45831C7.00999 6.46024 7.29136 6.18198 7.29329 5.8368C7.29836 4.92556 7.32202 4.27965 7.41207 3.78945C7.49883 3.3171 7.63814 3.04371 7.84102 2.84083C8.07166 2.6102 8.39547 2.45982 9.00695 2.37761C9.63641 2.29298 10.4707 2.29166 11.6668 2.29166H12.5002C13.6964 2.29166 14.5306 2.29298 15.1601 2.37761C15.7716 2.45982 16.0954 2.6102 16.326 2.84083C16.5566 3.07147 16.707 3.39528 16.7892 4.00676C16.8739 4.63622 16.8752 5.47048 16.8752 6.66666V13.3333C16.8752 14.5295 16.8739 15.3638 16.7892 15.9932C16.707 16.6047 16.5566 16.9285 16.326 17.1591C16.0954 17.3898 15.7716 17.5402 15.1601 17.6224C14.5306 17.707 13.6964 17.7083 12.5002 17.7083H11.6668C10.4707 17.7083 9.63641 17.707 9.00695 17.6224C8.39547 17.5402 8.07166 17.3898 7.84102 17.1591C7.63814 16.9563 7.49883 16.6829 7.41207 16.2105C7.32202 15.7203 7.29836 15.0744 7.29329 14.1632C7.29136 13.818 7.00999 13.5397 6.66482 13.5417C6.31964 13.5436 6.04138 13.825 6.04331 14.1701Z" fill="#F1573D"/>
</svg>
