<svg width="23" height="23" viewBox="0 0 23 23" fill="none" xmlns="http://www.w3.org/2000/svg">
<path fill-rule="evenodd" clip-rule="evenodd" d="M11.5001 5.29405L12.2332 4.50636C14.2578 2.33121 17.5404 2.33121 19.565 4.50636C21.5896 6.6815 21.5896 10.2081 19.565 12.3833L12.9664 19.4725C12.1566 20.3425 10.8436 20.3425 10.0337 19.4725L3.43519 12.3833C1.4106 10.2081 1.4106 6.6815 3.4352 4.50636C5.45979 2.33121 8.74231 2.33121 10.7669 4.50636L11.5001 5.29405ZM16.2917 5.03125C15.8948 5.03125 15.573 5.35305 15.573 5.75C15.573 6.14695 15.8948 6.46875 16.2917 6.46875C16.9533 6.46875 17.4897 7.00507 17.4897 7.66667C17.4897 8.06362 17.8115 8.38542 18.2084 8.38542C18.6054 8.38542 18.9272 8.06362 18.9272 7.66667C18.9272 6.21117 17.7472 5.03125 16.2917 5.03125Z" fill="#200E32"/>
</svg>
