<svg width="16" height="16" viewBox="0 0 16 16" fill="none" xmlns="http://www.w3.org/2000/svg">
<path fill-rule="evenodd" clip-rule="evenodd" d="M1.59835 14.4016C2.6967 15.5 4.46447 15.5 8 15.5C11.5355 15.5 13.3033 15.5 14.4016 14.4016C15.5 13.3033 15.5 11.5355 15.5 8C15.5 4.46447 15.5 2.6967 14.4016 1.59835C13.3033 0.5 11.5355 0.5 8 0.5C4.46447 0.5 2.6967 0.5 1.59835 1.59835C0.5 2.6967 0.5 4.46447 0.5 8C0.5 11.5355 0.5 13.3033 1.59835 14.4016ZM11.7011 5.14698L9.06702 12.0213C8.82837 12.6442 7.95502 12.6644 7.76876 12.0514L6.97638 9.4437C6.91475 9.24088 6.75912 9.08525 6.5563 9.02362L3.94857 8.23123C3.33559 8.04497 3.35584 7.17163 3.97868 6.93298L10.853 4.29891C11.4042 4.08771 11.9123 4.5958 11.7011 5.14698Z" fill="#024E99"/>
</svg>
