<svg width="23" height="23" viewBox="0 0 23 23" fill="none" xmlns="http://www.w3.org/2000/svg">
<path fill-rule="evenodd" clip-rule="evenodd" d="M11.5288 1.91668C13.6947 1.92626 15.7647 2.78876 17.2788 4.30293C18.8026 5.82668 19.6555 7.88709 19.6459 10.0242V10.0721C19.5884 12.9758 17.9592 15.6496 15.9276 17.7388C14.7776 18.9175 13.503 19.9621 12.1134 20.8438C11.7397 21.16 11.1934 21.16 10.8197 20.8438C8.75925 19.5021 6.93841 17.8154 5.46258 15.8508C4.16883 14.145 3.43091 12.0942 3.35425 9.95709C3.37341 5.50084 7.03425 1.90709 11.5288 1.91668ZM11.5288 12.7075C12.2093 12.7075 12.8609 12.4488 13.3401 11.9792C13.8384 11.4904 14.1173 10.8397 14.1173 10.1583C14.1173 8.74001 12.9567 7.59959 11.5288 7.59959C10.1009 7.59959 8.95092 8.74001 8.95092 10.1583C8.95092 11.5585 10.0818 12.6883 11.5001 12.7075H11.5288Z" fill="#200E32"/>
</svg>
