<svg width="23" height="23" viewBox="0 0 23 23" fill="none" xmlns="http://www.w3.org/2000/svg">
<g opacity="0.2">
<path d="M18.5343 13.8862L17.5759 12.2954C17.3747 11.9408 17.1926 11.27 17.1926 10.8771V8.45249C17.1926 6.20041 15.8701 4.25499 13.963 3.34457C13.4647 2.46291 12.5447 1.91666 11.4905 1.91666C10.4459 1.91666 9.50677 2.48207 9.00844 3.37332C7.13969 4.30291 5.84594 6.22916 5.84594 8.45249V10.8771C5.84594 11.27 5.66386 11.9408 5.46261 12.2858L4.49469 13.8862C4.11136 14.5283 4.02511 15.2375 4.26469 15.8892C4.49469 16.5312 5.04094 17.0296 5.75011 17.2692C7.60927 17.9017 9.56427 18.2083 11.5193 18.2083C13.4743 18.2083 15.4293 17.9017 17.2884 17.2787C17.9593 17.0583 18.4768 16.5504 18.7259 15.8892C18.9751 15.2279 18.908 14.4996 18.5343 13.8862Z" fill="#200E32"/>
<path d="M14.2122 19.1762C13.8097 20.2879 12.7459 21.0833 11.5001 21.0833C10.743 21.0833 9.99552 20.7767 9.46844 20.2304C9.16177 19.9429 8.93177 19.5596 8.79761 19.1667C8.92219 19.1858 9.04677 19.1954 9.18094 19.2146C9.40136 19.2433 9.63136 19.2721 9.86136 19.2912C10.4076 19.3392 10.9634 19.3679 11.5193 19.3679C12.0655 19.3679 12.6118 19.3392 13.1484 19.2912C13.3497 19.2721 13.5509 19.2625 13.7426 19.2337C13.8959 19.2146 14.0493 19.1954 14.2122 19.1762Z" fill="#200E32"/>
</g>
</svg>
