<svg width="19" height="19" viewBox="0 0 19 19" fill="none" xmlns="http://www.w3.org/2000/svg">
<g clip-path="url(#clip0_215_5463)">
<path d="M8.80465 2.79139C8.68893 2.0294 8.45493 1.25807 8.11408 0.504395C6.34406 0.753286 4.74196 1.52459 3.46851 2.65766L7.86793 7.05711C8.72748 5.96398 9.05971 4.4709 8.80465 2.79139Z" fill="#B0B1BC" fill-opacity="0.5"/>
<path d="M7.87264 8.53C6.82193 9.39755 5.4701 9.85079 3.95129 9.85083C3.5489 9.85083 3.13493 9.81903 2.71161 9.75479C1.97207 9.64246 1.22661 9.43177 0.495034 9.13117C0.494238 9.18157 0.493164 9.23193 0.493164 9.28253C0.493164 11.5441 1.34032 13.6074 2.73395 15.1737L8.62517 9.28253L7.87264 8.53Z" fill="#B0B1BC" fill-opacity="0.5"/>
<path d="M7.13353 7.79029L2.73408 3.39087C1.601 4.66432 0.829702 6.26639 0.580811 8.03641C1.33452 8.37726 2.10589 8.61133 2.86777 8.72705C4.54739 8.98214 6.04043 8.64984 7.13353 7.79029Z" fill="#B0B1BC" fill-opacity="0.5"/>
<path d="M15.8522 9.83816C14.1726 9.58303 12.6795 9.91532 11.5864 10.7749L15.9858 15.1743C17.1189 13.9008 17.8902 12.2988 18.1391 10.5288C17.3855 10.1879 16.6142 9.95391 15.8522 9.83816Z" fill="#B0B1BC" fill-opacity="0.5"/>
<path d="M10.1121 10.7707L9.35972 10.0183L3.46851 15.9095C5.03483 17.3032 7.09818 18.1503 9.35972 18.1503C9.41032 18.1503 9.46068 18.1492 9.51108 18.1484C9.21051 17.4168 8.99979 16.6714 8.88746 15.9318C8.58059 13.9108 9.01468 12.0997 10.1121 10.7707Z" fill="#B0B1BC" fill-opacity="0.5"/>
<path d="M8.60742 7.79578L9.35978 8.54814L15.251 2.65693C13.6847 1.26326 11.6213 0.416138 9.35978 0.416138C9.30918 0.416138 9.25881 0.417211 9.20842 0.418043C9.50899 1.14958 9.71971 1.89498 9.83204 2.63462C10.1389 4.65565 9.70482 6.46674 8.60742 7.79578Z" fill="#B0B1BC" fill-opacity="0.5"/>
<path d="M9.91476 15.7752C10.0304 16.537 10.2645 17.3084 10.6054 18.0621C12.3754 17.8133 13.9775 17.042 15.2509 15.9089L10.8514 11.5094C9.99193 12.6026 9.6597 14.0956 9.91476 15.7752Z" fill="#B0B1BC" fill-opacity="0.5"/>
<path d="M10.8471 10.0345C12.1761 8.93704 13.9872 8.50299 16.0082 8.80986C16.7479 8.92218 17.4933 9.13294 18.2248 9.43348C18.2257 9.38308 18.2267 9.33272 18.2267 9.28208C18.2267 7.02055 17.3796 4.9572 15.9859 3.39087L10.0947 9.28212L10.8471 10.0345Z" fill="#B0B1BC" fill-opacity="0.5"/>
</g>
<defs>
<clipPath id="clip0_215_5463">
<rect width="17.7335" height="17.7335" fill="white" transform="translate(0.493164 0.417694)"/>
</clipPath>
</defs>
</svg>
